<?xml version="1.0" standalone="no"?>
<!DOCTYPE svg PUBLIC "-//W3C//DTD SVG 20010904//EN"
 "http://www.w3.org/TR/2001/REC-SVG-20010904/DTD/svg10.dtd">
<svg version="1.0" xmlns="http://www.w3.org/2000/svg"
 width="600.000000pt" height="600.000000pt" viewBox="0 0 600.000000 600.000000"
 preserveAspectRatio="xMidYMid meet">
<metadata>
Created by potrace 1.11, written by Peter Selinger 2001-2013
</metadata>
<g transform="translate(0.000000,600.000000) scale(0.100000,-0.100000)"
fill="#000000" stroke="none">
<path d="M2964 5228 c-20 -35 -44 -76 -54 -93 -9 -16 -60 -105 -113 -197 -73
-126 -95 -173 -93 -195 5 -34 -11 -59 -46 -72 -15 -6 -36 -30 -54 -65 -16 -31
-32 -56 -36 -56 -5 0 -8 -5 -8 -10 0 -9 -87 -163 -208 -370 -26 -44 -142 -245
-162 -282 -8 -14 -35 -61 -60 -104 -25 -42 -52 -89 -60 -103 -8 -14 -28 -49
-45 -76 -16 -28 -39 -67 -50 -87 -18 -33 -159 -277 -253 -437 -18 -31 -38 -67
-45 -81 -6 -14 -15 -29 -20 -35 -7 -9 -50 -84 -129 -225 -17 -30 -58 -99 -90
-153 -32 -55 -58 -101 -58 -104 0 -2 -12 -23 -27 -46 -16 -23 -39 -64 -53 -92
-14 -27 -33 -58 -42 -69 -10 -11 -18 -24 -18 -29 0 -5 -10 -23 -22 -40 -13
-18 -22 -34 -22 -37 1 -3 -4 -14 -11 -25 -7 -11 -47 -81 -89 -155 -42 -74 -81
-142 -86 -150 -9 -15 -52 -90 -103 -180 -14 -25 -70 -124 -126 -220 -64 -112
-97 -178 -91 -185 6 -7 104 -11 309 -10 287 0 301 1 315 20 9 11 16 24 16 29
0 5 3 6 6 3 11 -10 45 13 38 25 -4 7 -2 8 5 4 9 -6 9 -11 1 -21 -8 -9 -8 -15
0 -20 5 -3 10 -14 10 -23 0 -16 127 -17 1975 -17 l1976 0 -6 25 c-6 21 -27 62
-85 160 -11 19 -86 150 -120 210 -57 103 -76 130 -88 130 -8 0 -27 14 -43 31
-24 26 -27 34 -17 54 9 20 3 37 -51 130 -33 59 -61 111 -61 116 0 5 -4 9 -10
9 -5 0 -10 4 -10 9 0 6 -15 36 -34 68 -19 32 -34 62 -34 67 0 5 -5 12 -10 15
-5 3 -20 26 -32 51 -12 24 -30 56 -40 70 -10 14 -57 95 -105 180 -100 176 -96
169 -199 348 -43 74 -89 155 -103 180 -14 26 -29 52 -33 57 -5 6 -23 37 -41
70 -18 33 -40 71 -51 84 -10 13 -18 28 -18 33 0 6 -8 22 -18 36 -11 15 -33 52
-49 82 -17 30 -54 96 -83 145 -29 50 -61 106 -72 125 -11 19 -52 90 -92 158
-39 67 -75 130 -81 140 -5 9 -26 44 -45 77 -19 33 -41 72 -50 87 -8 15 -31 54
-50 85 -19 32 -34 60 -35 63 0 3 -8 16 -17 30 -14 22 -352 606 -405 700 -11
19 -34 59 -52 88 -17 29 -31 56 -31 59 0 11 -51 73 -60 73 -5 0 -26 -28 -46
-62z m-1294 -3430 c0 -6 -6 -5 -15 2 -8 7 -15 14 -15 16 0 2 7 1 15 -2 8 -4
15 -11 15 -16z m-26 -43 c-4 -8 -8 -15 -10 -15 -2 0 -4 7 -4 15 0 8 4 15 10
15 5 0 7 -7 4 -15z m-27 -36 c-8 -5 -13 -19 -12 -34 2 -16 -1 -23 -8 -18 -7 4
-8 0 -4 -11 5 -11 3 -15 -5 -10 -8 5 -9 2 -5 -9 3 -10 2 -17 -4 -17 -6 0 -7
-5 -3 -12 5 -8 2 -9 -11 -4 -15 5 -16 4 -6 -8 10 -11 7 -19 -13 -39 -14 -14
-22 -28 -18 -33 4 -4 2 -4 -5 -1 -6 4 -13 4 -16 0 -2 -5 -2 -3 -1 4 2 6 -2 13
-7 15 -17 6 45 113 65 112 11 -1 15 3 11 15 -3 9 4 26 14 38 11 11 17 24 13
27 -3 4 2 4 12 0 15 -6 16 -8 3 -15z"/>
<path d="M1585 1689 c-4 -6 -5 -12 -2 -15 2 -3 7 2 10 11 7 17 1 20 -8 4z"/>
<path d="M1553 1635 c0 -8 4 -12 9 -9 5 3 6 10 3 15 -9 13 -12 11 -12 -6z"/>
<path d="M1513 1565 c0 -8 4 -15 9 -15 4 0 8 4 8 9 0 6 -4 12 -8 15 -5 3 -9
-1 -9 -9z"/>
</g>
</svg>
